<svg xmlns="http://www.w3.org/2000/svg" xmlns:xlink="http://www.w3.org/1999/xlink" width="4000" zoomAndPan="magnify" viewBox="0 0 3000 2999.999989" height="4000" preserveAspectRatio="xMidYMid meet" version="1.0"><path fill="#1877f2" d="M 3000 1500 C 3000 671.574219 2328.425781 0 1500 0 C 671.574219 0 0 671.574219 0 1500 C 0 2248.695312 548.527344 2869.25 1265.625 2981.78125 L 1265.625 1933.59375 L 884.765625 1933.59375 L 884.765625 1500 L 1265.625 1500 L 1265.625 1169.527344 C 1265.625 793.589844 1489.5625 585.9375 1832.199219 585.9375 C 1996.308594 585.9375 2167.96875 615.234375 2167.96875 615.234375 L 2167.96875 984.375 L 1978.820312 984.375 C 1792.488281 984.375 1734.375 1100.007812 1734.375 1218.625 L 1734.375 1500 L 2150.390625 1500 L 2083.890625 1933.59375 L 1734.375 1933.59375 L 1734.375 2981.78125 C 2451.472656 2869.25 3000 2248.695312 3000 1500 " fill-opacity="1" fill-rule="nonzero"/><path fill="#ffffff" d="M 2083.890625 1933.59375 L 2150.390625 1500 L 1734.375 1500 L 1734.375 1218.625 C 1734.375 1100.007812 1792.488281 984.375 1978.820312 984.375 L 2167.96875 984.375 L 2167.96875 615.234375 C 2167.96875 615.234375 1996.308594 585.9375 1832.199219 585.9375 C 1489.5625 585.9375 1265.625 793.589844 1265.625 1169.527344 L 1265.625 1500 L 884.765625 1500 L 884.765625 1933.59375 L 1265.625 1933.59375 L 1265.625 2981.78125 C 1341.992188 2993.761719 1420.269531 3000 1500 3000 C 1579.730469 3000 1658.007812 2993.761719 1734.375 2981.78125 L 1734.375 1933.59375 L 2083.890625 1933.59375 " fill-opacity="1" fill-rule="nonzero"/></svg>