<svg xmlns="http://www.w3.org/2000/svg" xmlns:xlink="http://www.w3.org/1999/xlink" width="4000" zoomAndPan="magnify" viewBox="0 0 3000 2999.999989" height="4000" preserveAspectRatio="xMidYMid meet" version="1.0"><path fill="#bde7ff" d="M 1500 3000 C 2328.429688 3000 3000 2328.429688 3000 1500 C 3000 671.574219 2328.429688 0 1500 0 C 671.574219 0 0 671.574219 0 1500 C 0 2328.429688 671.574219 3000 1500 3000 Z M 818.726562 861.84375 L 1500 1406.859375 L 2181.269531 861.847656 L 2200.941406 845.453125 L 799.058594 845.453125 Z M 2273.828125 974.050781 L 2300 952.25 L 2300 2081.820312 C 2300 2121.980469 2267.441406 2154.550781 2227.269531 2154.550781 L 772.726562 2154.550781 C 732.5625 2154.550781 700 2121.980469 700 2081.820312 L 700 952.25 L 726.167969 974.050781 L 727.296875 974.96875 L 1454.570312 1556.789062 C 1481.128906 1578.039062 1518.871094 1578.039062 1545.429688 1556.789062 L 2272.710938 974.96875 Z M 2273.828125 974.050781 " fill-opacity="1" fill-rule="evenodd"/><path fill="#f2f2f2" d="M 2338.40625 2208.707031 L 661.125 2208.707031 C 595.597656 2208.707031 540.746094 2156.835938 540.746094 2089.851562 L 540.746094 929.039062 C 540.75 927.070312 540.800781 925.101562 540.902344 923.136719 C 541 921.171875 541.148438 919.207031 541.34375 917.25 C 541.542969 915.289062 541.785156 913.335938 542.078125 911.390625 C 542.371094 909.441406 542.710938 907.503906 543.097656 905.574219 C 543.484375 903.640625 543.917969 901.722656 544.398438 899.8125 C 544.882812 897.90625 545.410156 896.007812 545.984375 894.125 C 546.558594 892.242188 547.175781 890.375 547.84375 888.519531 C 548.507812 886.667969 549.21875 884.832031 549.972656 883.015625 C 550.730469 881.195312 551.527344 879.398438 552.371094 877.617188 C 553.214844 875.839844 554.101562 874.082031 555.03125 872.347656 C 555.960938 870.609375 556.933594 868.898438 557.949219 867.210938 C 558.960938 865.523438 560.015625 863.863281 561.109375 862.226562 C 562.207031 860.589844 563.339844 858.980469 564.511719 857.402344 C 565.6875 855.820312 566.898438 854.269531 568.148438 852.75 C 569.398438 851.226562 570.683594 849.738281 572.007812 848.28125 C 573.328125 846.820312 574.6875 845.394531 576.078125 844.003906 C 577.472656 842.613281 578.898438 841.257812 580.355469 839.933594 C 581.816406 838.613281 583.304688 837.328125 584.828125 836.078125 C 586.351562 834.832031 587.902344 833.621094 589.484375 832.449219 C 591.0625 831.277344 592.671875 830.140625 594.308594 829.046875 C 595.945312 827.953125 597.609375 826.902344 599.296875 825.890625 C 600.984375 824.878906 602.699219 823.90625 604.433594 822.980469 C 606.167969 822.050781 607.925781 821.164062 609.707031 820.324219 C 611.484375 819.480469 613.285156 818.683594 615.101562 817.929688 C 616.921875 817.175781 618.757812 816.46875 620.609375 815.804688 C 622.460938 815.140625 624.332031 814.519531 626.214844 813.949219 C 628.097656 813.375 629.992188 812.851562 631.902344 812.371094 C 633.8125 811.890625 635.730469 811.460938 637.660156 811.074219 C 639.59375 810.6875 641.53125 810.351562 643.476562 810.058594 C 645.425781 809.769531 647.378906 809.527344 649.335938 809.332031 C 651.292969 809.136719 653.257812 808.992188 655.222656 808.894531 C 657.1875 808.796875 659.15625 808.746094 661.125 808.742188 L 2338.40625 808.742188 C 2403.929688 808.742188 2458.785156 862.714844 2458.785156 929.160156 L 2458.785156 2088.351562 C 2457.285156 2156.953125 2403.929688 2208.765625 2338.40625 2208.765625 Z M 2338.40625 2208.707031 " fill-opacity="1" fill-rule="nonzero"/><path fill="#221f1f" d="M 780.542969 2208.707031 L 1498.144531 1683.382812 L 1502.703125 1652.917969 L 762.558594 1121.058594 L 761.058594 2182.800781 Z M 780.542969 2208.707031 " fill-opacity="0.098" fill-rule="nonzero"/><path fill="#d44c3d" d="M 661.125 2208.707031 C 594.699219 2208.707031 540.746094 2156.835938 540.746094 2089.851562 L 540.746094 927.480469 C 540.746094 860.4375 594.699219 848.320312 661.125 848.320312 C 727.546875 848.320312 781.503906 862.113281 781.503906 927.480469 L 781.503906 2208.648438 Z M 661.125 2208.707031 " fill-opacity="1" fill-rule="nonzero"/><path fill="#d44c3d" d="M 661.125 866.550781 C 746.433594 866.550781 763.21875 892.460938 763.21875 927.480469 L 763.21875 2191.855469 L 661.125 2191.855469 C 604.769531 2191.855469 559.027344 2146.160156 559.027344 2089.730469 L 559.027344 927.480469 C 557.53125 891.5 575.816406 866.550781 661.125 866.550781 Z M 661.125 849.761719 C 594.699219 849.820312 540.746094 863.496094 540.746094 927.480469 L 540.746094 2088.230469 C 540.714844 2090.207031 540.738281 2092.1875 540.808594 2094.164062 C 540.878906 2096.140625 541 2098.117188 541.167969 2100.085938 C 541.335938 2102.058594 541.554688 2104.023438 541.824219 2105.984375 C 542.089844 2107.945312 542.40625 2109.898438 542.773438 2111.839844 C 543.136719 2113.785156 543.550781 2115.71875 544.011719 2117.644531 C 544.472656 2119.566406 544.984375 2121.476562 545.542969 2123.375 C 546.097656 2125.273438 546.703125 2127.15625 547.355469 2129.027344 C 548.003906 2130.894531 548.703125 2132.746094 549.445312 2134.578125 C 550.191406 2136.410156 550.980469 2138.226562 551.816406 2140.019531 C 552.648438 2141.8125 553.527344 2143.585938 554.449219 2145.335938 C 555.375 2147.085938 556.339844 2148.808594 557.347656 2150.511719 C 558.359375 2152.210938 559.410156 2153.886719 560.503906 2155.535156 C 561.59375 2157.1875 562.730469 2158.804688 563.902344 2160.398438 C 565.078125 2161.992188 566.289062 2163.554688 567.542969 2165.085938 C 568.792969 2166.617188 570.082031 2168.117188 571.410156 2169.582031 C 572.738281 2171.050781 574.101562 2172.484375 575.5 2173.882812 C 576.898438 2175.28125 578.328125 2176.644531 579.796875 2177.972656 C 581.261719 2179.296875 582.761719 2180.589844 584.292969 2181.839844 C 585.824219 2183.09375 587.386719 2184.308594 588.976562 2185.480469 C 590.570312 2186.65625 592.191406 2187.789062 593.839844 2188.882812 C 595.488281 2189.976562 597.160156 2191.027344 598.863281 2192.039062 C 600.5625 2193.046875 602.289062 2194.011719 604.039062 2194.9375 C 605.785156 2195.859375 607.558594 2196.738281 609.351562 2197.574219 C 611.144531 2198.410156 612.957031 2199.199219 614.789062 2199.941406 C 616.621094 2200.6875 618.472656 2201.382812 620.339844 2202.035156 C 622.207031 2202.6875 624.089844 2203.292969 625.988281 2203.847656 C 627.886719 2204.40625 629.796875 2204.914062 631.71875 2205.378906 C 633.644531 2205.839844 635.578125 2206.253906 637.519531 2206.617188 C 639.464844 2206.984375 641.417969 2207.300781 643.375 2207.566406 C 645.335938 2207.835938 647.300781 2208.054688 649.273438 2208.222656 C 651.242188 2208.394531 653.214844 2208.511719 655.191406 2208.582031 C 657.167969 2208.652344 659.144531 2208.675781 661.125 2208.648438 L 781.503906 2208.648438 L 781.503906 927.480469 C 780.542969 861.996094 728.148438 849.820312 661.125 849.820312 Z M 2338.40625 866.550781 C 2416.101562 866.550781 2440.5 881.785156 2440.5 924.480469 L 2440.5 2091.347656 C 2440.5 2147.71875 2394.816406 2193.476562 2338.40625 2193.476562 L 2236.308594 2193.476562 L 2236.308594 924.480469 C 2234.8125 880.285156 2260.710938 866.550781 2338.40625 866.550781 Z M 2338.40625 849.761719 C 2271.378906 849.761719 2218.023438 858.875 2218.023438 924.421875 L 2218.023438 2210.148438 L 2338.40625 2210.148438 C 2405.429688 2210.148438 2458.785156 2156.175781 2458.785156 2089.730469 L 2458.785156 922.921875 C 2457.285156 857.378906 2403.929688 849.761719 2338.40625 849.761719 Z M 2338.40625 849.761719 " fill-opacity="1" fill-rule="nonzero"/><path fill="#d44c3d" d="M 2338.40625 2208.707031 L 2218.023438 2208.707031 L 2218.023438 924.480469 C 2218.023438 857.4375 2271.980469 849.820312 2338.40625 849.820312 C 2404.828125 849.820312 2458.785156 858.9375 2458.785156 924.480469 L 2458.785156 2091.347656 C 2458.742188 2093.289062 2458.652344 2095.226562 2458.519531 2097.164062 C 2458.382812 2099.101562 2458.199219 2101.035156 2457.96875 2102.960938 C 2457.742188 2104.890625 2457.464844 2106.808594 2457.140625 2108.722656 C 2456.820312 2110.636719 2456.449219 2112.542969 2456.035156 2114.441406 C 2455.617188 2116.335938 2455.15625 2118.222656 2454.652344 2120.09375 C 2454.144531 2121.96875 2453.59375 2123.828125 2452.996094 2125.675781 C 2452.398438 2127.523438 2451.757812 2129.355469 2451.070312 2131.171875 C 2450.382812 2132.988281 2449.652344 2134.785156 2448.882812 2136.566406 C 2448.109375 2138.347656 2447.292969 2140.105469 2446.433594 2141.847656 C 2445.574219 2143.589844 2444.671875 2145.308594 2443.730469 2147.003906 C 2442.789062 2148.703125 2441.804688 2150.375 2440.78125 2152.023438 C 2439.757812 2153.671875 2438.695312 2155.296875 2437.59375 2156.894531 C 2436.492188 2158.492188 2435.351562 2160.0625 2434.171875 2161.605469 C 2432.992188 2163.148438 2431.777344 2164.660156 2430.527344 2166.144531 C 2429.273438 2167.625 2427.988281 2169.078125 2426.664062 2170.5 C 2425.34375 2171.921875 2423.988281 2173.308594 2422.597656 2174.664062 C 2421.207031 2176.019531 2419.785156 2177.339844 2418.332031 2178.625 C 2416.878906 2179.910156 2415.394531 2181.160156 2413.878906 2182.375 C 2412.363281 2183.585938 2410.820312 2184.765625 2409.25 2185.902344 C 2407.675781 2187.042969 2406.078125 2188.140625 2404.453125 2189.203125 C 2402.828125 2190.265625 2401.179688 2191.285156 2399.503906 2192.265625 C 2397.828125 2193.246094 2396.132812 2194.1875 2394.414062 2195.085938 C 2392.691406 2195.984375 2390.949219 2196.839844 2389.1875 2197.65625 C 2387.425781 2198.46875 2385.648438 2199.238281 2383.847656 2199.96875 C 2382.046875 2200.695312 2380.234375 2201.378906 2378.402344 2202.015625 C 2376.566406 2202.65625 2374.722656 2203.25 2372.859375 2203.800781 C 2371 2204.351562 2369.125 2204.855469 2367.238281 2205.3125 C 2365.351562 2205.773438 2363.457031 2206.183594 2361.550781 2206.550781 C 2359.644531 2206.917969 2357.734375 2207.238281 2355.8125 2207.511719 C 2353.890625 2207.785156 2351.964844 2208.011719 2350.03125 2208.191406 C 2348.097656 2208.371094 2346.164062 2208.503906 2344.222656 2208.589844 C 2342.285156 2208.675781 2340.34375 2208.714844 2338.40625 2208.707031 Z M 2338.40625 2208.707031 " fill-opacity="1" fill-rule="nonzero"/><path fill="#221f1f" d="M 1824.992188 2208.707031 L 551.414062 978.453125 L 618.4375 1005.859375 L 1505.699219 1644.34375 L 2458.722656 944.273438 L 2458.722656 2091.347656 C 2458.714844 2093.308594 2458.660156 2095.265625 2458.554688 2097.222656 C 2458.453125 2099.179688 2458.300781 2101.132812 2458.097656 2103.082031 C 2457.898438 2105.03125 2457.652344 2106.972656 2457.355469 2108.910156 C 2457.058594 2110.847656 2456.714844 2112.777344 2456.324219 2114.695312 C 2455.933594 2116.617188 2455.496094 2118.523438 2455.011719 2120.421875 C 2454.527344 2122.320312 2453.992188 2124.207031 2453.417969 2126.078125 C 2452.839844 2127.949219 2452.214844 2129.808594 2451.546875 2131.648438 C 2450.875 2133.492188 2450.164062 2135.3125 2449.402344 2137.121094 C 2448.644531 2138.925781 2447.839844 2140.714844 2446.992188 2142.480469 C 2446.148438 2144.246094 2445.257812 2145.992188 2444.324219 2147.714844 C 2443.390625 2149.4375 2442.417969 2151.136719 2441.398438 2152.8125 C 2440.382812 2154.484375 2439.324219 2156.132812 2438.226562 2157.757812 C 2437.128906 2159.378906 2435.992188 2160.972656 2434.816406 2162.539062 C 2433.640625 2164.109375 2432.425781 2165.644531 2431.175781 2167.152344 C 2429.921875 2168.65625 2428.632812 2170.132812 2427.308594 2171.578125 C 2425.984375 2173.019531 2424.625 2174.429688 2423.230469 2175.804688 C 2421.835938 2177.183594 2420.410156 2178.523438 2418.949219 2179.832031 C 2417.492188 2181.136719 2416 2182.40625 2414.476562 2183.636719 C 2412.953125 2184.871094 2411.402344 2186.066406 2409.820312 2187.222656 C 2408.238281 2188.378906 2406.628906 2189.496094 2404.992188 2190.570312 C 2403.359375 2191.648438 2401.695312 2192.683594 2400.007812 2193.679688 C 2398.320312 2194.675781 2396.609375 2195.625 2394.875 2196.539062 C 2393.140625 2197.449219 2391.386719 2198.316406 2389.609375 2199.140625 C 2387.832031 2199.964844 2386.035156 2200.742188 2384.21875 2201.480469 C 2382.40625 2202.214844 2380.570312 2202.90625 2378.722656 2203.550781 C 2376.875 2204.195312 2375.007812 2204.796875 2373.128906 2205.351562 C 2371.25 2205.902344 2369.359375 2206.410156 2367.457031 2206.871094 C 2365.550781 2207.332031 2363.636719 2207.746094 2361.714844 2208.109375 C 2359.789062 2208.476562 2357.855469 2208.792969 2355.917969 2209.066406 C 2353.976562 2209.335938 2352.03125 2209.558594 2350.082031 2209.734375 C 2348.128906 2209.910156 2346.175781 2210.035156 2344.21875 2210.113281 C 2342.261719 2210.195312 2340.304688 2210.222656 2338.34375 2210.207031 Z M 1824.992188 2208.707031 " fill-opacity="0.0784" fill-rule="nonzero"/><path fill="#d44c3d" d="M 1497.546875 1684.882812 L 592.539062 1028.109375 C 538.585938 988.527344 523.957031 912.367188 563.585938 858.996094 C 603.210938 805.625 679.289062 793.449219 734.203125 833.089844 L 1498.984375 1389.296875 L 2268.324219 825.535156 C 2322.277344 785.953125 2396.316406 798.128906 2435.882812 852.941406 C 2475.449219 906.910156 2463.28125 980.972656 2408.484375 1020.550781 Z M 1497.546875 1684.882812 " fill-opacity="1" fill-rule="nonzero"/><path fill="#d44c3d" d="M 2338.40625 820.855469 C 2370.417969 820.855469 2402.371094 836.089844 2422.214844 863.554688 C 2454.226562 909.25 2444.996094 973.296875 2399.433594 1007.480469 L 1497.546875 1663.59375 L 603.210938 1014.433594 C 557.53125 980.851562 545.300781 915.308594 576.714844 870.511719 C 595 843.105469 627.070312 826.3125 662.023438 826.3125 C 684.804688 826.3125 706.207031 832.429688 722.933594 846.101562 L 1486.09375 1400.8125 L 1496.765625 1406.929688 L 1507.4375 1400.8125 L 2275.996094 837.527344 C 2295.78125 826.855469 2315.5625 820.738281 2338.464844 820.738281 Z M 2338.40625 802.566406 C 2314.003906 802.566406 2288.046875 808.683594 2268.261719 825.355469 L 1498.984375 1389.238281 L 732.703125 831.53125 C 712.921875 816.300781 687.023438 808.742188 661.125 808.742188 C 623.054688 810.242188 584.988281 827.035156 562.085938 859.117188 C 524.019531 913.089844 539.304688 987.148438 592.539062 1026.726562 L 1497.546875 1684.882812 L 2408.488281 1020.433594 C 2410.066406 1019.273438 2411.621094 1018.078125 2413.144531 1016.84375 C 2414.667969 1015.609375 2416.160156 1014.339844 2417.621094 1013.035156 C 2419.085938 1011.726562 2420.515625 1010.386719 2421.910156 1009.011719 C 2423.308594 1007.636719 2424.671875 1006.226562 2426 1004.785156 C 2427.328125 1003.34375 2428.621094 1001.871094 2429.878906 1000.367188 C 2431.136719 998.859375 2432.355469 997.328125 2433.539062 995.761719 C 2434.71875 994.199219 2435.863281 992.609375 2436.96875 990.988281 C 2438.074219 989.367188 2439.140625 987.722656 2440.164062 986.050781 C 2441.191406 984.382812 2442.175781 982.6875 2443.117188 980.96875 C 2444.0625 979.25 2444.960938 977.507812 2445.820312 975.746094 C 2446.679688 973.980469 2447.496094 972.199219 2448.265625 970.398438 C 2449.039062 968.59375 2449.765625 966.773438 2450.449219 964.9375 C 2451.132812 963.097656 2451.773438 961.246094 2452.367188 959.378906 C 2452.960938 957.507812 2453.507812 955.625 2454.011719 953.730469 C 2454.511719 951.835938 2454.96875 949.929688 2455.378906 948.011719 C 2455.789062 946.09375 2456.152344 944.167969 2456.46875 942.234375 C 2456.785156 940.296875 2457.054688 938.355469 2457.273438 936.40625 C 2457.496094 934.460938 2457.671875 932.507812 2457.800781 930.550781 C 2457.925781 928.59375 2458.007812 926.636719 2458.039062 924.675781 C 2458.070312 922.714844 2458.054688 920.753906 2457.992188 918.792969 C 2457.929688 916.835938 2457.820312 914.878906 2457.660156 912.921875 C 2457.503906 910.96875 2457.296875 909.019531 2457.042969 907.074219 C 2456.792969 905.128906 2456.492188 903.191406 2456.144531 901.261719 C 2455.800781 899.332031 2455.40625 897.414062 2454.964844 895.5 C 2454.527344 893.589844 2454.039062 891.691406 2453.507812 889.804688 C 2452.976562 887.917969 2452.398438 886.042969 2451.773438 884.183594 C 2451.152344 882.324219 2450.484375 880.484375 2449.773438 878.65625 C 2449.058594 876.828125 2448.304688 875.019531 2447.503906 873.230469 C 2446.703125 871.441406 2445.859375 869.671875 2444.972656 867.921875 C 2444.085938 866.171875 2443.160156 864.445312 2442.1875 862.742188 C 2441.21875 861.039062 2440.207031 859.359375 2439.15625 857.703125 C 2438.105469 856.050781 2437.015625 854.421875 2435.882812 852.820312 C 2411.484375 820.796875 2374.972656 802.445312 2338.40625 802.445312 Z M 2338.40625 802.566406 " fill-opacity="1" fill-rule="nonzero"/></svg>