<svg xmlns="http://www.w3.org/2000/svg" xmlns:xlink="http://www.w3.org/1999/xlink" width="4000" zoomAndPan="magnify" viewBox="0 0 3000 2999.999989" height="4000" preserveAspectRatio="xMidYMid meet" version="1.0"><defs><clipPath id="c78737d84f"><path d="M 11.234375 11.234375 L 2988.734375 11.234375 L 2988.734375 2988.734375 L 11.234375 2988.734375 Z M 11.234375 11.234375 " clip-rule="nonzero"/></clipPath></defs><g clip-path="url(#c78737d84f)"><path fill="#1b9df0" d="M 2988.734375 1499.984375 C 2988.734375 1524.347656 2988.136719 1548.699219 2986.941406 1573.03125 C 2985.746094 1597.367188 2983.953125 1621.660156 2981.566406 1645.90625 C 2979.175781 1670.152344 2976.195312 1694.328125 2972.621094 1718.429688 C 2969.046875 1742.527344 2964.878906 1766.527344 2960.128906 1790.425781 C 2955.375 1814.320312 2950.039062 1838.085938 2944.117188 1861.71875 C 2938.199219 1885.355469 2931.699219 1908.828125 2924.628906 1932.144531 C 2917.554688 1955.460938 2909.914062 1978.585938 2901.707031 2001.527344 C 2893.5 2024.46875 2884.734375 2047.191406 2875.410156 2069.703125 C 2866.085938 2092.214844 2856.214844 2114.480469 2845.796875 2136.507812 C 2835.378906 2158.53125 2824.429688 2180.289062 2812.945312 2201.773438 C 2801.457031 2223.261719 2789.453125 2244.457031 2776.925781 2265.355469 C 2764.402344 2286.25 2751.371094 2306.828125 2737.832031 2327.089844 C 2724.296875 2347.347656 2710.273438 2367.261719 2695.757812 2386.832031 C 2681.246094 2406.402344 2666.257812 2425.601562 2650.800781 2444.4375 C 2635.347656 2463.269531 2619.4375 2481.714844 2603.074219 2499.765625 C 2586.710938 2517.820312 2569.917969 2535.460938 2552.6875 2552.6875 C 2535.460938 2569.917969 2517.820312 2586.710938 2499.765625 2603.074219 C 2481.714844 2619.4375 2463.269531 2635.347656 2444.4375 2650.800781 C 2425.601562 2666.257812 2406.398438 2681.246094 2386.832031 2695.757812 C 2367.261719 2710.273438 2347.347656 2724.296875 2327.089844 2737.832031 C 2306.828125 2751.371094 2286.25 2764.402344 2265.351562 2776.925781 C 2244.457031 2789.453125 2223.261719 2801.457031 2201.773438 2812.945312 C 2180.289062 2824.429688 2158.53125 2835.378906 2136.503906 2845.796875 C 2114.480469 2856.214844 2092.214844 2866.085938 2069.703125 2875.410156 C 2047.191406 2884.734375 2024.46875 2893.5 2001.527344 2901.707031 C 1978.585938 2909.914062 1955.460938 2917.554688 1932.144531 2924.628906 C 1908.828125 2931.699219 1885.355469 2938.195312 1861.71875 2944.117188 C 1838.085938 2950.039062 1814.320312 2955.375 1790.425781 2960.128906 C 1766.527344 2964.878906 1742.527344 2969.042969 1718.429688 2972.621094 C 1694.328125 2976.195312 1670.152344 2979.175781 1645.90625 2981.566406 C 1621.660156 2983.953125 1597.367188 2985.746094 1573.03125 2986.941406 C 1548.699219 2988.136719 1524.347656 2988.734375 1499.984375 2988.734375 C 1475.617188 2988.734375 1451.269531 2988.136719 1426.933594 2986.941406 C 1402.597656 2985.746094 1378.308594 2983.953125 1354.058594 2981.566406 C 1329.8125 2979.175781 1305.640625 2976.195312 1281.539062 2972.621094 C 1257.4375 2969.046875 1233.4375 2964.878906 1209.542969 2960.128906 C 1185.644531 2955.375 1161.882812 2950.039062 1138.246094 2944.117188 C 1114.613281 2938.199219 1091.136719 2931.699219 1067.820312 2924.628906 C 1044.507812 2917.554688 1021.378906 2909.914062 998.4375 2901.707031 C 975.5 2893.5 952.773438 2884.734375 930.261719 2875.410156 C 907.753906 2866.085938 885.484375 2856.214844 863.460938 2845.796875 C 841.433594 2835.378906 819.679688 2824.429688 798.191406 2812.945312 C 776.703125 2801.457031 755.511719 2789.453125 734.613281 2776.925781 C 713.714844 2764.402344 693.136719 2751.371094 672.878906 2737.832031 C 652.621094 2724.296875 632.707031 2710.273438 613.136719 2695.757812 C 593.566406 2681.246094 574.363281 2666.257812 555.53125 2650.800781 C 536.695312 2635.347656 518.253906 2619.4375 500.199219 2603.074219 C 482.148438 2586.710938 464.507812 2569.917969 447.277344 2552.6875 C 430.050781 2535.460938 413.253906 2517.820312 396.890625 2499.765625 C 380.53125 2481.714844 364.621094 2463.269531 349.164062 2444.4375 C 333.707031 2425.601562 318.722656 2406.402344 304.207031 2386.832031 C 289.695312 2367.261719 275.667969 2347.347656 262.132812 2327.089844 C 248.597656 2306.828125 235.566406 2286.25 223.039062 2265.355469 C 210.515625 2244.457031 198.507812 2223.261719 187.023438 2201.773438 C 175.539062 2180.289062 164.585938 2158.53125 154.167969 2136.507812 C 143.753906 2114.480469 133.882812 2092.214844 124.558594 2069.703125 C 115.234375 2047.191406 106.46875 2024.46875 98.257812 2001.527344 C 90.050781 1978.585938 82.410156 1955.460938 75.339844 1932.144531 C 68.265625 1908.828125 61.769531 1885.355469 55.847656 1861.71875 C 49.929688 1838.085938 44.59375 1814.320312 39.839844 1790.425781 C 35.085938 1766.527344 30.921875 1742.527344 27.347656 1718.429688 C 23.773438 1694.328125 20.789062 1670.152344 18.402344 1645.90625 C 16.015625 1621.660156 14.222656 1597.367188 13.027344 1573.03125 C 11.832031 1548.699219 11.234375 1524.347656 11.234375 1499.984375 C 11.234375 1475.617188 11.832031 1451.269531 13.027344 1426.933594 C 14.222656 1402.597656 16.015625 1378.308594 18.402344 1354.0625 C 20.789062 1329.8125 23.773438 1305.640625 27.347656 1281.539062 C 30.921875 1257.4375 35.085938 1233.4375 39.839844 1209.542969 C 44.59375 1185.648438 49.929688 1161.882812 55.847656 1138.246094 C 61.769531 1114.613281 68.265625 1091.136719 75.339844 1067.820312 C 82.410156 1044.507812 90.050781 1021.378906 98.257812 998.4375 C 106.46875 975.5 115.234375 952.773438 124.558594 930.261719 C 133.882812 907.753906 143.753906 885.484375 154.167969 863.460938 C 164.585938 841.4375 175.539062 819.679688 187.023438 798.191406 C 198.507812 776.703125 210.515625 755.511719 223.039062 734.613281 C 235.566406 713.714844 248.597656 693.136719 262.132812 672.878906 C 275.667969 652.621094 289.695312 632.707031 304.207031 613.136719 C 318.722656 593.566406 333.707031 574.363281 349.164062 555.53125 C 364.621094 536.695312 380.53125 518.253906 396.890625 500.199219 C 413.253906 482.148438 430.050781 464.507812 447.277344 447.277344 C 464.507812 430.050781 482.148438 413.253906 500.199219 396.890625 C 518.253906 380.53125 536.695312 364.621094 555.53125 349.164062 C 574.363281 333.707031 593.566406 318.722656 613.136719 304.207031 C 632.707031 289.695312 652.621094 275.667969 672.878906 262.132812 C 693.136719 248.597656 713.714844 235.566406 734.613281 223.039062 C 755.511719 210.515625 776.703125 198.507812 798.191406 187.023438 C 819.679688 175.539062 841.433594 164.585938 863.460938 154.167969 C 885.484375 143.753906 907.753906 133.882812 930.261719 124.558594 C 952.773438 115.234375 975.5 106.46875 998.4375 98.261719 C 1021.378906 90.050781 1044.507812 82.410156 1067.820312 75.339844 C 1091.136719 68.265625 1114.613281 61.769531 1138.246094 55.847656 C 1161.882812 49.929688 1185.644531 44.59375 1209.542969 39.839844 C 1233.4375 35.085938 1257.4375 30.921875 1281.539062 27.347656 C 1305.640625 23.773438 1329.8125 20.789062 1354.058594 18.402344 C 1378.308594 16.015625 1402.597656 14.222656 1426.933594 13.027344 C 1451.269531 11.832031 1475.617188 11.234375 1499.984375 11.234375 C 1524.347656 11.234375 1548.699219 11.832031 1573.03125 13.027344 C 1597.367188 14.222656 1621.660156 16.015625 1645.90625 18.402344 C 1670.152344 20.789062 1694.328125 23.773438 1718.429688 27.347656 C 1742.527344 30.921875 1766.527344 35.085938 1790.425781 39.839844 C 1814.320312 44.59375 1838.085938 49.929688 1861.71875 55.847656 C 1885.355469 61.769531 1908.828125 68.265625 1932.144531 75.339844 C 1955.460938 82.410156 1978.585938 90.050781 2001.527344 98.261719 C 2024.46875 106.46875 2047.191406 115.234375 2069.703125 124.558594 C 2092.214844 133.882812 2114.480469 143.753906 2136.503906 154.167969 C 2158.53125 164.585938 2180.289062 175.539062 2201.773438 187.023438 C 2223.261719 198.507812 2244.457031 210.515625 2265.351562 223.039062 C 2286.25 235.566406 2306.828125 248.597656 2327.089844 262.132812 C 2347.347656 275.667969 2367.261719 289.695312 2386.832031 304.207031 C 2406.398438 318.722656 2425.601562 333.707031 2444.4375 349.164062 C 2463.269531 364.621094 2481.714844 380.53125 2499.765625 396.890625 C 2517.820312 413.253906 2535.460938 430.050781 2552.6875 447.277344 C 2569.917969 464.507812 2586.710938 482.148438 2603.074219 500.199219 C 2619.4375 518.253906 2635.347656 536.695312 2650.800781 555.53125 C 2666.257812 574.363281 2681.246094 593.566406 2695.757812 613.136719 C 2710.273438 632.707031 2724.296875 652.621094 2737.832031 672.878906 C 2751.371094 693.136719 2764.402344 713.714844 2776.925781 734.613281 C 2789.453125 755.511719 2801.457031 776.703125 2812.945312 798.191406 C 2824.429688 819.679688 2835.378906 841.433594 2845.796875 863.460938 C 2856.214844 885.484375 2866.085938 907.753906 2875.410156 930.261719 C 2884.734375 952.773438 2893.5 975.5 2901.707031 998.4375 C 2909.914062 1021.378906 2917.554688 1044.507812 2924.628906 1067.820312 C 2931.699219 1091.136719 2938.195312 1114.613281 2944.117188 1138.246094 C 2950.035156 1161.882812 2955.375 1185.644531 2960.128906 1209.542969 C 2964.878906 1233.4375 2969.042969 1257.4375 2972.621094 1281.539062 C 2976.195312 1305.640625 2979.175781 1329.8125 2981.566406 1354.0625 C 2983.953125 1378.308594 2985.746094 1402.597656 2986.941406 1426.933594 C 2988.136719 1451.269531 2988.734375 1475.617188 2988.734375 1499.984375 Z M 2988.734375 1499.984375 " fill-opacity="1" fill-rule="nonzero"/></g><path fill="#ffffff" d="M 1227.542969 2285.300781 C 1887.800781 2285.300781 2248.824219 1738.183594 2248.824219 1264.015625 C 2248.824219 1248.382812 2248.824219 1232.753906 2248.078125 1217.867188 C 2318.050781 1167.246094 2379.089844 1103.976562 2427.472656 1031.773438 C 2363.457031 1060.058594 2294.230469 1079.410156 2221.28125 1088.34375 C 2295.71875 1043.683594 2352.292969 973.710938 2379.089844 889.597656 C 2309.863281 930.535156 2233.191406 960.3125 2151.3125 976.6875 C 2085.804688 906.714844 1992.757812 863.542969 1889.292969 863.542969 C 1691.289062 863.542969 1530.503906 1024.328125 1530.503906 1222.332031 C 1530.503906 1250.617188 1533.480469 1278.160156 1540.179688 1304.214844 C 1241.683594 1289.324219 977.433594 1146.40625 800.269531 929.046875 C 769.75 981.898438 751.886719 1043.683594 751.886719 1109.1875 C 751.886719 1233.496094 815.160156 1343.664062 911.925781 1407.679688 C 853.121094 1406.191406 798.039062 1389.816406 749.652344 1363.019531 C 749.652344 1364.507812 749.652344 1365.996094 749.652344 1367.484375 C 749.652344 1541.667969 873.21875 1686.078125 1037.726562 1719.574219 C 1007.953125 1727.761719 975.941406 1732.230469 943.191406 1732.230469 C 920.113281 1732.230469 897.785156 1729.996094 875.453125 1725.527344 C 920.859375 1868.449219 1053.359375 1971.917969 1210.421875 1974.894531 C 1087.597656 2070.917969 932.769531 2128.234375 764.539062 2128.234375 C 735.511719 2128.234375 707.222656 2126.746094 678.9375 2123.027344 C 836 2225.75 1025.070312 2285.300781 1227.542969 2285.300781 " fill-opacity="1" fill-rule="nonzero"/></svg>